AB28_05Apr_ss_11ms_01
version=1
nRows=26
nColumns=19
inDegrees=yes
endheader
time	ground_force1_vx	ground_force1_vy	ground_force1_vz	ground_force1_px	ground_force1_py	ground_force1_pz	ground_torque1_x	ground_torque1_y	ground_torque1_z	ground_force2_vx	ground_force2_vy	ground_force2_vz	ground_force2_px	ground_force2_py	ground_force2_pz	ground_torque2_x	ground_torque2_y	ground_torque2_z
22.822000	49.866943	501.959625	116.806946	0.414488	0.000000	-0.979933	0.000027	-3.358182	0.000015	-2.019348	347.928253	-102.531433	0.566035	0.000000	-0.541827	-0.000010	-4.968547	0.000004	
22.823000	50.629883	508.317047	117.875061	0.413662	0.000000	-0.977235	0.000025	-3.826380	0.000011	0.574646	339.113556	-96.122742	0.567788	0.000000	-0.539415	0.000010	-4.983720	0.000014	
22.824000	53.376465	515.885437	117.112122	0.411316	0.000000	-0.979379	0.000005	-2.860632	0.000017	1.184998	330.298859	-90.934753	0.570789	0.000000	-0.530982	0.000015	-8.579376	0.000028	
22.825000	53.529053	522.242859	115.433655	0.407864	0.000000	-0.982806	0.000010	-0.151627	0.000009	1.032410	320.572296	-91.850281	0.570935	0.000000	-0.535712	0.000008	-9.828182	-0.000006	
22.826000	52.460938	524.362000	114.365540	0.406075	0.000000	-0.986710	0.000043	0.723253	-0.000002	3.016052	313.581329	-93.223572	0.573319	0.000000	-0.539123	0.000008	-10.122774	0.000011	
22.827000	51.240234	524.664734	113.755188	0.407108	0.000000	-0.987067	0.000011	0.330859	0.000009	1.184998	301.727081	-92.002869	0.565730	0.000000	-0.540152	0.000020	-10.698468	0.000012	
22.828000	53.834229	527.086609	114.365540	0.410701	0.000000	-0.984375	0.000037	-0.180689	0.000013	1.642761	292.912384	-89.103699	0.564364	0.000000	-0.530665	0.000003	-10.013517	-0.000006	
22.829000	55.817871	531.022156	117.264709	0.413916	0.000000	-0.978909	0.000057	-0.344164	0.000024	0.574646	283.185822	-87.882996	0.561884	0.000000	-0.525702	0.000011	-9.659770	-0.000007	
22.830000	56.275635	537.985046	119.553528	0.414462	0.000000	-0.975722	0.000026	-1.137238	0.000005	-0.340881	277.410675	-88.493347	0.560072	0.000000	-0.528755	0.000006	-8.241694	0.000008	
22.831000	56.428223	548.883484	120.469055	0.411884	0.000000	-0.974051	0.000019	-0.772396	0.000016	1.490173	271.939484	-84.678650	0.567335	0.000000	-0.533132	-0.000008	-6.076268	0.000007	
22.832000	52.766113	554.332703	120.926819	0.409300	0.000000	-0.976746	0.000036	0.212839	0.000011	3.321228	267.076202	-79.338074	0.573788	0.000000	-0.535554	0.000008	-3.320853	0.000005	
22.833000	46.357422	555.846375	119.095764	0.405661	0.000000	-0.974523	0.000029	-2.007224	0.000018	4.084167	255.525909	-76.286316	0.569495	0.000000	-0.531207	-0.000011	-2.109821	0.000013	
22.834000	41.016846	554.938171	116.196594	0.406990	0.000000	-0.976556	0.000027	-2.944544	0.000007	1.184998	242.455841	-74.607849	0.561022	0.000000	-0.515703	0.000014	-5.400828	0.000002	
22.835000	43.916016	559.176453	114.518127	0.411434	0.000000	-0.980015	0.000008	-0.992628	0.000014	-2.629700	234.553009	-71.250916	0.557461	0.000000	-0.509228	0.000007	-10.157375	0.000009	
22.836000	47.120361	567.955750	114.518127	0.413266	0.000000	-0.979836	0.000017	-1.770838	0.000012	-3.087463	228.777863	-66.368103	0.556152	0.000000	-0.525272	0.000009	-10.652330	-0.000005	
22.837000	45.289307	578.854187	115.281067	0.409696	0.000000	-0.977754	0.000018	-2.349601	-0.000001	1.642761	227.258087	-62.095646	0.567511	0.000000	-0.541628	0.000003	-6.923255	0.000016	
22.838000	41.932373	589.147156	115.738831	0.406675	0.000000	-0.973454	0.000040	0.054370	0.000010	4.236755	221.178986	-58.891300	0.569666	0.000000	-0.540020	0.000003	-7.894159	0.000006	
22.839000	42.695313	594.596375	117.569885	0.407295	0.000000	-0.971478	0.000059	0.897829	0.000018	3.473816	215.403839	-54.618839	0.568958	0.000000	-0.544336	0.000011	-8.650154	0.000008	
22.840000	45.594482	595.807312	118.790588	0.408202	0.000000	-0.969911	0.000016	-0.499082	0.000013	2.710876	211.452423	-47.142033	0.568033	0.000000	-0.553357	0.000001	-6.677088	0.000007	
22.841000	46.662598	596.412781	119.095764	0.407416	0.000000	-0.971778	0.000008	-1.164853	0.000016	2.100525	206.589142	-42.564396	0.569005	0.000000	-0.562852	0.000005	-6.815501	0.000007	
22.842000	47.883301	602.164734	119.400940	0.406959	0.000000	-0.966933	-0.000003	0.618804	0.000013	5.304871	197.774445	-42.259220	0.572528	0.000000	-0.546124	-0.000001	-6.185108	-0.000004	
22.843000	51.240234	608.522156	119.553528	0.409746	0.000000	-0.968009	0.000036	1.683169	0.000010	7.288513	185.920197	-39.512638	0.563854	0.000000	-0.518151	-0.000006	-0.833375	-0.000000	
22.844000	56.123047	616.695984	120.316467	0.408387	0.000000	-0.970147	0.000027	-0.749047	0.000006	3.626404	179.537140	-33.714298	0.557631	0.000000	-0.504059	-0.000002	0.185454	0.000005	
22.845000	60.548096	624.567078	121.994934	0.408443	0.000000	-0.968422	0.000042	-0.258769	0.000018	0.422058	174.977814	-34.477238	0.558327	0.000000	-0.526923	0.000011	-5.332528	-0.000002	
22.846000	63.294678	629.108093	121.842346	0.410895	0.000000	-0.967996	0.000039	0.045750	0.000006	1.642761	168.594757	-40.885929	0.572306	0.000000	-0.545430	0.000005	-6.216170	-0.000000	
22.847000	60.395508	633.043640	120.621643	0.409507	0.000000	-0.965432	0.000011	-0.962667	0.000018	3.931580	156.436554	-44.090275	0.571946	0.000000	-0.530293	-0.000006	-4.898290	0.000002	
